<svg xmlns="http://www.w3.org/2000/svg" width="32" height="32" viewBox="0 0 32 32"><defs><style>.a{fill:rgba(255,255,255,0.7);}.b{fill:#5c5ce0;}</style></defs><g transform="translate(-9 -52)"><circle class="a" cx="16" cy="16" r="16" transform="translate(9 52)"/><g transform="translate(20.129 60.11)"><path class="b" d="M104.5,7.663l5.731-5.731a.84.84,0,0,0,0-1.185l-.5-.5a.839.839,0,0,0-1.185,0l-6.824,6.824a.846.846,0,0,0,0,1.189l6.817,6.817a.84.84,0,0,0,1.185,0l.5-.5a.839.839,0,0,0,0-1.185Z" transform="translate(-101.48 0)"/></g></g></svg>