<svg xmlns="http://www.w3.org/2000/svg" width="11.002" height="16" viewBox="0 0 11.002 16"><defs><style>.a{fill:#7a8094;}</style></defs><g transform="translate(-79.968 0.001)"><path class="a" d="M90.205,2.739A5.43,5.43,0,0,0,85.592,0c-.082,0-.164,0-.246,0a5.43,5.43,0,0,0-4.614,2.739,5.57,5.57,0,0,0-.073,5.5l3.968,7.262.005.01a.964.964,0,0,0,1.673,0l.005-.01,3.968-7.262a5.57,5.57,0,0,0-.073-5.5ZM85.469,7.25A2.25,2.25,0,1,1,87.719,5,2.253,2.253,0,0,1,85.469,7.25Z" transform="translate(0)"/></g></svg>