<svg xmlns="http://www.w3.org/2000/svg" width="13.792" height="20.057" viewBox="0 0 13.792 20.057"><defs><style>.a{fill:#5c5ce0;}</style></defs><g transform="translate(-79.968 0)"><path class="a" d="M92.8,3.434A6.806,6.806,0,0,0,87.018,0c-.1,0-.206,0-.309,0a6.807,6.807,0,0,0-5.784,3.433,6.983,6.983,0,0,0-.091,6.9l4.974,9.1.007.012a1.209,1.209,0,0,0,2.1,0l.007-.012,4.974-9.1a6.983,6.983,0,0,0-.091-6.9ZM86.864,9.088a2.821,2.821,0,1,1,2.821-2.821A2.824,2.824,0,0,1,86.864,9.088Z" transform="translate(0 0)"/></g></svg>